<svg xmlns="http://www.w3.org/2000/svg" width="102" height="140" viewBox="0 0 102 140"><defs><style>.a{fill:#9d4b4c;}</style></defs><g transform="translate(-84 -4)"><path class="a" d="M165.614,120.533h.856a34.538,34.538,0,1,0-1.248-.025l.063.008C165.395,120.528,165.5,120.533,165.614,120.533ZM138.671,86.09a27.8,27.8,0,1,1,27.8,27.777,27.788,27.788,0,0,1-27.8-27.777Z" transform="translate(-34.656 -34.313)"/><path class="a" d="M185.036,110.563,162.685,88.23a47.8,47.8,0,1,0-47.55,8.323v44.11a3.359,3.359,0,0,0,5.186,2.773l11.493-7.656,11.493,7.656a3.359,3.359,0,0,0,5.186-2.773V121.189l12.955,12.942a3.359,3.359,0,0,0,5.63-1.7l2.708-13.534,13.545-2.706a3.355,3.355,0,0,0,1.7-5.625ZM90.672,51.777a41.143,41.143,0,1,1,41.143,41.11,41.173,41.173,0,0,1-41.143-41.11ZM133.665,129a3.338,3.338,0,0,0-3.7,0l-8.157,5.434V98.5a47.946,47.946,0,0,0,20.016,0v35.938ZM166.3,112.793a3.335,3.335,0,0,0-2.617,2.615l-1.922,9.605-13.263-13.252V96.554a47.684,47.684,0,0,0,8.748-4.333l18.668,18.653Z" transform="translate(0)"/><path class="a" d="M212.76,138.123a3.359,3.359,0,0,0,4.828-3.5l-1.624-9.762,7.057-6.944a3.355,3.355,0,0,0-1.844-5.671l-9.794-1.474-4.429-8.852a3.36,3.36,0,0,0-5.967,0l-4.429,8.851-9.794,1.474a3.355,3.355,0,0,0-1.844,5.671l7.057,6.944-1.624,9.762a3.358,3.358,0,0,0,4.828,3.5l8.79-4.559Zm-14.734-8.988.814-4.893a3.332,3.332,0,0,0-.95-2.921l-3.536-3.481,4.909-.739a3.336,3.336,0,0,0,2.487-1.806l2.22-4.436,2.22,4.437a3.336,3.336,0,0,0,2.487,1.806l4.909.739-3.537,3.482a3.332,3.332,0,0,0-.95,2.921l.814,4.893-4.406-2.286a3.338,3.338,0,0,0-3.074,0Z" transform="translate(-72.155 -69.406)"/></g></svg>