<svg xmlns="http://www.w3.org/2000/svg" width="24" height="24" viewBox="0 0 24 24"><defs><style>.a{fill:none;}.b{fill:#9d4b4c;}</style></defs><g transform="translate(-932 -1076)"><rect class="a" width="24" height="24" transform="translate(932 1076)"/><g transform="translate(933 1077)"><g transform="translate(1.289 7.777)"><path class="b" d="M46.844,182.289V181H30v3.223a8.447,8.447,0,0,0,3.934,7.133h8.933a8.759,8.759,0,0,0,1.626-1.289H46.2a4.517,4.517,0,0,0,4.512-4.512v-3.266Zm2.578,3.266a3.226,3.226,0,0,1-3.223,3.223h-.7a8.425,8.425,0,0,0,1.346-4.555v-.645h2.578Z" transform="translate(-30 -181)"/></g><g transform="translate(5.186)"><path class="b" d="M122.385,0l-.715,1.073a.9.9,0,0,1,0,1.506,2.194,2.194,0,0,0,0,3.651l.715-1.073a.9.9,0,0,1,0-1.506,2.194,2.194,0,0,0,0-3.651Z" transform="translate(-120.693)"/></g><g transform="translate(8.409)"><path class="b" d="M197.385,0l-.715,1.073a.9.9,0,0,1,0,1.506,2.194,2.194,0,0,0,0,3.651l.715-1.073a.9.9,0,0,1,0-1.506,2.194,2.194,0,0,0,0-3.651Z" transform="translate(-195.693)"/></g><g transform="translate(11.631)"><path class="b" d="M272.385,0l-.715,1.073a.9.9,0,0,1,0,1.506,2.194,2.194,0,0,0,0,3.651l.715-1.073a.9.9,0,0,1,0-1.506,2.194,2.194,0,0,0,0-3.651Z" transform="translate(-270.693)"/></g><g transform="translate(0 19.422)"><path class="b" d="M0,452a2.578,2.578,0,0,0,2.578,2.578H16.844A2.578,2.578,0,0,0,19.422,452Z" transform="translate(0 -452)"/></g></g></g></svg>