<svg xmlns="http://www.w3.org/2000/svg" width="24" height="24" viewBox="0 0 24 24"><defs><style>.a{fill:none;}.b{fill:#9d4b4c;}</style></defs><g transform="translate(-524 -884)"><g transform="translate(-471 -301)"><rect class="a" width="24" height="24" transform="translate(995 1185)"/></g><g transform="translate(414.565 762.851)"><g transform="translate(113.435 122.149)"><g transform="translate(0 0)"><path class="b" d="M129.189,130.351l-6.663-8.2h-2.181l-6.663,8.2a1.1,1.1,0,0,0-.246.694v12.007a1.094,1.094,0,0,0,1.091,1.1h2.329v-4.62a4.581,4.581,0,1,1,9.161,0v4.62h2.329a1.094,1.094,0,0,0,1.091-1.1V131.045A1.1,1.1,0,0,0,129.189,130.351Z" transform="translate(-114.435 -122.149)"/></g></g><g transform="translate(117.872 135.947)"><g transform="translate(0 0)"><path class="b" d="M196.073,366.648a3.577,3.577,0,0,0-3.563,3.583v4.62H193.6v-4.456a2.472,2.472,0,1,1,4.944,0v4.456h1.091v-4.62A3.577,3.577,0,0,0,196.073,366.648Z" transform="translate(-192.51 -366.648)"/></g></g></g></g></svg>