<svg xmlns="http://www.w3.org/2000/svg" width="24" height="24" viewBox="0 0 24 24"><defs><style>.a{fill:none;}.b{fill:#9d4b4c;}</style></defs><g transform="translate(-995 -1185)"><rect class="a" width="24" height="24" transform="translate(995 1185)"/><g transform="translate(996 1185.324)"><path class="b" d="M15.682,116.048H1.094A1.1,1.1,0,0,0,0,117.145v14.628a1.1,1.1,0,0,0,1.094,1.1H15.682a1.1,1.1,0,0,0,1.094-1.1V117.145A1.1,1.1,0,0,0,15.682,116.048Z" transform="translate(0 -110.194)"/><path class="b" d="M400.28,89.293h-1.187V76.49h1.187a.218.218,0,0,0,.153-.371L398.517,74.2a.217.217,0,0,0-.307,0l-1.916,1.921a.218.218,0,0,0,.153.371h1.187v12.8h-1.187a.218.218,0,0,0-.153.371l1.916,1.921a.217.217,0,0,0,.307,0l1.916-1.921a.218.218,0,0,0-.153-.371Z" transform="translate(-378.497 -70.161)"/><path class="b" d="M28.434,4.89a.217.217,0,0,0,.37-.154V3.546H41.573v1.19a.217.217,0,0,0,.37.154l1.916-1.921a.218.218,0,0,0,0-.308L41.943.74a.217.217,0,0,0-.37.154v1.19H28.8V.893a.217.217,0,0,0-.37-.154L26.518,2.661a.218.218,0,0,0,0,.308Z" transform="translate(-25.27 0)"/></g></g></svg>