<svg xmlns="http://www.w3.org/2000/svg" width="24" height="24" viewBox="0 0 24 24"><defs><style>.a{fill:none;}.b{fill:#9d4b4c;}</style></defs><g transform="translate(-864 -975)"><rect class="a" width="24" height="24" transform="translate(864 975)"/><g transform="translate(865 975.998)"><g transform="translate(0 0.002)"><path class="b" d="M21.753,11.971l-6.17-3.219V3.482l.239.13a.458.458,0,0,0,.439-.8L11.219.058a.459.459,0,0,0-.439,0L5.739,2.808a.458.458,0,0,0,.439.8l.239-.13V8.751L.246,11.971a.458.458,0,0,0,.424.813l.246-.128v7.972a.458.458,0,0,0,.458.458H4.583v.458A.458.458,0,0,0,5.041,22H16.958a.458.458,0,0,0,.458-.458v-.458h3.208a.458.458,0,0,0,.458-.458V12.655l.246.128a.458.458,0,0,0,.424-.813Zm-8.92,9.115H9.167V16.5a1.833,1.833,0,0,1,3.667,0v4.583Z" transform="translate(0 -0.002)"/></g></g></g></svg>