<svg xmlns="http://www.w3.org/2000/svg" width="24" height="24" viewBox="0 0 24 24"><defs><style>.a{fill:#9d4b4c;}.b{fill:none;}</style></defs><g transform="translate(-622 -1272)"><g transform="translate(624 1273.744)"><g transform="translate(0 0.256)"><path class="a" d="M20,10.267,18.288,8.035l.383-2.773L16.059,4.224,15.023,1.609l-2.77.383L10,.256,7.77,1.97,5,1.586,3.964,4.2,1.351,5.239l.383,2.773L0,10.267,1.712,12.5l-.383,2.773L3.941,16.31l1.036,2.616,2.77-.383,2.23,1.714,2.23-1.714,2.77.383,1.036-2.616,2.613-1.06-.383-2.773ZM9.189,13.514,5.856,10.763l.721-.879,2.477,2.029L13.288,7.02l.856.744Z" transform="translate(0 -0.256)"/></g></g><rect class="b" width="24" height="24" transform="translate(622 1272)"/></g></svg>