<svg xmlns="http://www.w3.org/2000/svg" width="16" height="16" viewBox="0 0 16 16"><defs><style>.a{fill:none;}.b{fill:#9d4b4c;}</style></defs><path class="a" d="M0,0H16V16H0Z"/><path class="b" d="M9,15a6,6,0,0,0,6-6A6,6,0,0,0,9,15ZM4.733,7.167A1.668,1.668,0,0,0,7.347,8.54l-.013.127a1.667,1.667,0,0,0,3.333,0l-.013-.127a1.643,1.643,0,0,0,.947.293,1.663,1.663,0,0,0,.713-3.167,1.664,1.664,0,1,0-1.66-2.873l.013-.127a1.667,1.667,0,1,0-3.333,0l.013.127A1.643,1.643,0,0,0,6.4,2.5a1.663,1.663,0,0,0-.713,3.167A1.661,1.661,0,0,0,4.733,7.167ZM9,4A1.667,1.667,0,1,1,7.333,5.667,1.667,1.667,0,0,1,9,4ZM3,9a6,6,0,0,0,6,6A6,6,0,0,0,3,9Z" transform="translate(-1 -0.333)"/></svg>