<svg xmlns="http://www.w3.org/2000/svg" width="167.835" height="82.093" viewBox="0 0 167.835 82.093"><defs><style>.a{fill:#fff;}</style></defs><path class="a" d="M0,41.368q2.822.8,4.723,1.147a19.865,19.865,0,0,0,3.5.342,11.151,11.151,0,0,0,5.4-1.147,8.64,8.64,0,0,0,3.272-3.078,12.407,12.407,0,0,0,1.615-4.467,32.033,32.033,0,0,0,.429-5.352,39.383,39.383,0,0,0-.368-5.372,50.761,50.761,0,0,0-1.1-5.573q-.736-2.9-1.82-6.117T13.168,4.708H22.82a72.183,72.183,0,0,1,2.474,7.183q1.043,3.642,1.7,7.223a5.017,5.017,0,0,0,.552,1.489,3.409,3.409,0,0,0,1.268,1.207,7.642,7.642,0,0,0,2.351.825,19.546,19.546,0,0,0,3.8.3V33.884H33.9a11.258,11.258,0,0,1-2.045-.161,7.632,7.632,0,0,1-1.534-.443,4.671,4.671,0,0,1-1.186-.7,8.617,8.617,0,0,1-1-.986l-.2.04a31.675,31.675,0,0,1-1.943,10.04,20.885,20.885,0,0,1-4.294,6.942,16.561,16.561,0,0,1-6.053,4.044,19.783,19.783,0,0,1-7.136,1.308,20.81,20.81,0,0,1-3.946-.382A31.229,31.229,0,0,1,0,52.274Zm40.364-7.485h-5.4a2.292,2.292,0,0,1-2.147-1.469,9.267,9.267,0,0,1-.716-4,9.267,9.267,0,0,1,.716-4,2.292,2.292,0,0,1,2.147-1.469h5.807q1.636,0,2.863-.121a4.437,4.437,0,0,0,2.024-.644,3.088,3.088,0,0,0,1.186-1.59,9.1,9.1,0,0,0,.389-3V-1.529h8.711v19.4A21.25,21.25,0,0,1,54.657,25.9a12.236,12.236,0,0,1-3.435,4.889,12.021,12.021,0,0,1-4.969,2.435A25.63,25.63,0,0,1,40.364,33.884ZM55.618,47.4h-9.61V38.914h9.61ZM82.077,33.884a15.417,15.417,0,0,1-6.85-1.328,11,11,0,0,1-4.253-3.6,13.88,13.88,0,0,1-2.167-5.312,33.687,33.687,0,0,1-.593-6.459V-28.129h8.711V14.809a29.75,29.75,0,0,0,.2,3.8,5.472,5.472,0,0,0,.9,2.515,3.842,3.842,0,0,0,2.086,1.388,13.589,13.589,0,0,0,3.8.423V33.884ZM95.45,22.938a17.445,17.445,0,0,1-4.785-5.292,13.08,13.08,0,0,1-1.718-6.62,17.909,17.909,0,0,1,.532-4.266,20.785,20.785,0,0,1,1.513-4.185,21.793,21.793,0,0,1,2.331-3.763,19.384,19.384,0,0,1,2.944-3.078A12.925,12.925,0,0,1,99.7-6.338a9.949,9.949,0,0,1,3.762-.744,9.478,9.478,0,0,1,4.274,1.006,13.915,13.915,0,0,1,3.742,2.757A21.158,21.158,0,0,1,114.568.744a29.573,29.573,0,0,1,2.331,4.95,33.183,33.183,0,0,1,1.472,5.453,30.842,30.842,0,0,1,.511,5.513A16.915,16.915,0,0,1,117.86,22.7q.859.08,1.677.121t1.738.08q.92.04,2.024.04h2.576V33.884h-1.431q-1.8,0-3.824-.141t-4.069-.423q-2.045-.282-4.028-.744a29.9,29.9,0,0,1-3.7-1.107A27.823,27.823,0,0,1,104.3,32.8q-2.351.483-4.683.724t-4.539.3q-2.208.06-4.049.06H83.917a2.292,2.292,0,0,1-2.147-1.469,9.267,9.267,0,0,1-.716-4,9.267,9.267,0,0,1,.716-4,2.292,2.292,0,0,1,2.147-1.469h4.09q.777,0,1.881.06l2.188.121q1.084.06,1.983.1t1.268.04ZM102.975,4.1a3.4,3.4,0,0,0-2.045.724A7.488,7.488,0,0,0,99.212,6.62a9.856,9.856,0,0,0-1.166,2.254,6.4,6.4,0,0,0-.429,2.153,4.788,4.788,0,0,0,.389,1.71A7.315,7.315,0,0,0,99.56,14.95a20.582,20.582,0,0,0,3.333,2.7,44.336,44.336,0,0,0,5.725,3.159,2.74,2.74,0,0,0,.736-.946,7.393,7.393,0,0,0,.47-1.227,7.145,7.145,0,0,0,.245-1.288q.061-.644.061-1.127a13.583,13.583,0,0,0-.593-3.622,20.319,20.319,0,0,0-1.595-3.984,13.572,13.572,0,0,0-2.29-3.2A3.772,3.772,0,0,0,102.975,4.1Zm-2.454-19.517H90.91V-23.9h9.61Zm13.986,0H104.9V-23.9h9.61Zm38.2,49.3a19.876,19.876,0,0,1-4.151-.423,20.117,20.117,0,0,1-3.762-1.187,23.308,23.308,0,0,1-3.353-1.771,18.727,18.727,0,0,1-2.842-2.213,12.925,12.925,0,0,1-5.562,4.346,18.7,18.7,0,0,1-6.87,1.247h-.286a2.292,2.292,0,0,1-2.147-1.469,9.267,9.267,0,0,1-.716-4,9.267,9.267,0,0,1,.716-4,2.292,2.292,0,0,1,2.147-1.469h.573a8.892,8.892,0,0,0,4.253-.905,9.26,9.26,0,0,0,2.822-2.314,13.553,13.553,0,0,0,1.9-3.139q.757-1.73,1.534-3.38a41.993,41.993,0,0,1,2.433-4.507,17.8,17.8,0,0,1,3.088-3.742,13.663,13.663,0,0,1,4.049-2.555,13.851,13.851,0,0,1,5.316-.946,14.548,14.548,0,0,1,6.973,1.61,15.685,15.685,0,0,1,5.01,4.165,18.039,18.039,0,0,1,3.006,5.694,20.3,20.3,0,0,1,1,6.2,16.032,16.032,0,0,1-1.063,5.9,13.568,13.568,0,0,1-3.026,4.688,13.756,13.756,0,0,1-4.764,3.078A16.96,16.96,0,0,1,152.7,33.884Zm-1.145-21.65a7.261,7.261,0,0,0-2.985.584,7.941,7.941,0,0,0-2.351,1.61,11.47,11.47,0,0,0-1.861,2.435,21.922,21.922,0,0,0-1.472,3.1,11.789,11.789,0,0,0,4.049,2.233,14.415,14.415,0,0,0,2.658.563,26.953,26.953,0,0,0,3.272.181q1.145,0,2.27-.1a7.315,7.315,0,0,0,2-.443,3.556,3.556,0,0,0,1.411-.946,2.347,2.347,0,0,0,.532-1.61,7.932,7.932,0,0,0-.368-2.052,8.181,8.181,0,0,0-1.247-2.515,8.068,8.068,0,0,0-2.331-2.133A6.638,6.638,0,0,0,151.558,12.233Z" transform="translate(0 28.129)"/></svg>