<svg xmlns="http://www.w3.org/2000/svg" width="92" height="45" viewBox="0 0 92 45"><defs><style>.a{fill:#9d4b4c;}</style></defs><path class="a" d="M0,9.967q1.547.441,2.589.629a10.889,10.889,0,0,0,1.917.187,6.113,6.113,0,0,0,2.959-.629A4.736,4.736,0,0,0,9.258,8.467a6.8,6.8,0,0,0,.885-2.449,17.559,17.559,0,0,0,.235-2.934,21.588,21.588,0,0,0-.2-2.945,27.825,27.825,0,0,0-.605-3.055q-.4-1.588-1-3.353t-1.356-3.86h5.29a39.567,39.567,0,0,1,1.356,3.938q.572,2,.93,3.96a2.75,2.75,0,0,0,.3.816,1.869,1.869,0,0,0,.695.662A4.189,4.189,0,0,0,17.082-.3a10.715,10.715,0,0,0,2.085.165v6h-.583a6.171,6.171,0,0,1-1.121-.088,4.184,4.184,0,0,1-.841-.243,2.561,2.561,0,0,1-.65-.386,4.724,4.724,0,0,1-.549-.54l-.112.022a17.363,17.363,0,0,1-1.065,5.5,11.448,11.448,0,0,1-2.354,3.805,9.078,9.078,0,0,1-3.318,2.217,10.844,10.844,0,0,1-3.912.717,11.407,11.407,0,0,1-2.163-.21A17.119,17.119,0,0,1,0,15.945Zm22.126-4.1H19.167a1.256,1.256,0,0,1-1.177-.805A5.08,5.08,0,0,1,17.6,2.864,5.08,5.08,0,0,1,17.99.669a1.256,1.256,0,0,1,1.177-.805H22.35q.9,0,1.569-.066a2.432,2.432,0,0,0,1.11-.353,1.693,1.693,0,0,0,.65-.871,4.99,4.99,0,0,0,.213-1.643V-13.548h4.775V-2.916a11.649,11.649,0,0,1-.706,4.4,6.707,6.707,0,0,1-1.883,2.68A6.589,6.589,0,0,1,25.354,5.5,14.049,14.049,0,0,1,22.126,5.864Zm8.362,7.412H25.219V8.621h5.268Zm14.5-7.412a8.451,8.451,0,0,1-3.755-.728A6.027,6.027,0,0,1,38.9,3.162,7.608,7.608,0,0,1,37.717.25a18.466,18.466,0,0,1-.325-3.54V-28.129h4.775V-4.592a16.308,16.308,0,0,0,.112,2.085,3,3,0,0,0,.493,1.379,2.106,2.106,0,0,0,1.143.761A7.449,7.449,0,0,0,46-.136v6Zm7.33-6a9.562,9.562,0,0,1-2.623-2.9,7.17,7.17,0,0,1-.942-3.629A9.817,9.817,0,0,1,49.049-9a11.394,11.394,0,0,1,.829-2.294,11.946,11.946,0,0,1,1.278-2.062,10.626,10.626,0,0,1,1.614-1.687,7.085,7.085,0,0,1,1.883-1.136,5.454,5.454,0,0,1,2.062-.408,5.2,5.2,0,0,1,2.343.551,7.628,7.628,0,0,1,2.051,1.511A11.6,11.6,0,0,1,62.8-12.3a16.21,16.21,0,0,1,1.278,2.713A18.19,18.19,0,0,1,64.886-6.6a16.906,16.906,0,0,1,.28,3.022,9.272,9.272,0,0,1-.56,3.309q.471.044.919.066l.953.044q.5.022,1.11.022H69v6h-.785q-.986,0-2.1-.077t-2.23-.232q-1.121-.154-2.208-.408a16.388,16.388,0,0,1-2.029-.607,15.251,15.251,0,0,1-2.477.728q-1.289.265-2.567.4t-2.488.165q-1.211.033-2.219.033H46a1.256,1.256,0,0,1-1.177-.805,5.08,5.08,0,0,1-.392-2.195A5.08,5.08,0,0,1,44.823.669,1.256,1.256,0,0,1,46-.136h2.242q.426,0,1.031.033l1.2.066q.594.033,1.087.055t.695.022ZM56.446-10.46a1.862,1.862,0,0,0-1.121.4,4.1,4.1,0,0,0-.942.982,5.4,5.4,0,0,0-.639,1.235,3.506,3.506,0,0,0-.235,1.18,2.625,2.625,0,0,0,.213.938,4.01,4.01,0,0,0,.852,1.213A11.282,11.282,0,0,0,56.4-3.037,24.3,24.3,0,0,0,59.54-1.305a1.5,1.5,0,0,0,.4-.518A4.053,4.053,0,0,0,60.2-2.5a3.916,3.916,0,0,0,.135-.706q.034-.353.034-.618a7.446,7.446,0,0,0-.325-1.985,11.138,11.138,0,0,0-.874-2.184,7.44,7.44,0,0,0-1.255-1.754A2.068,2.068,0,0,0,56.446-10.46ZM55.1-21.158H49.833v-4.654H55.1Zm7.667,0H57.5v-4.654h5.268ZM83.706,5.864a10.9,10.9,0,0,1-2.275-.232,11.028,11.028,0,0,1-2.062-.651,12.777,12.777,0,0,1-1.838-.971A10.266,10.266,0,0,1,75.972,2.8,7.085,7.085,0,0,1,72.923,5.18a10.248,10.248,0,0,1-3.766.684H69a1.256,1.256,0,0,1-1.177-.805,5.08,5.08,0,0,1-.392-2.195A5.08,5.08,0,0,1,67.823.669,1.256,1.256,0,0,1,69-.136h.314a4.874,4.874,0,0,0,2.331-.5A5.076,5.076,0,0,0,73.192-1.9a7.429,7.429,0,0,0,1.042-1.721q.415-.949.841-1.853a23.019,23.019,0,0,1,1.334-2.471A9.758,9.758,0,0,1,78.1-10a7.49,7.49,0,0,1,2.219-1.4,7.592,7.592,0,0,1,2.914-.518,7.975,7.975,0,0,1,3.822.882A8.6,8.6,0,0,1,89.8-8.75a9.888,9.888,0,0,1,1.648,3.121A11.127,11.127,0,0,1,92-2.232,8.788,8.788,0,0,1,91.417,1a7.437,7.437,0,0,1-1.659,2.57,7.541,7.541,0,0,1-2.612,1.687A9.3,9.3,0,0,1,83.706,5.864ZM83.078-6a3.98,3.98,0,0,0-1.636.32,4.353,4.353,0,0,0-1.289.882,6.288,6.288,0,0,0-1.02,1.335,12.016,12.016,0,0,0-.807,1.7,6.578,6.578,0,0,0,1.02.706,6.522,6.522,0,0,0,1.2.518A7.9,7.9,0,0,0,82-.236a14.774,14.774,0,0,0,1.793.1q.628,0,1.244-.055a4.01,4.01,0,0,0,1.1-.243,1.949,1.949,0,0,0,.773-.518,1.287,1.287,0,0,0,.291-.882A4.348,4.348,0,0,0,87-2.96a4.485,4.485,0,0,0-.684-1.379,4.423,4.423,0,0,0-1.278-1.169A3.639,3.639,0,0,0,83.078-6Z" transform="translate(0 28.129)"/></svg>